<?xml version="1.0" encoding="UTF-8" standalone="no"?>
<!DOCTYPE svg PUBLIC "-//W3C//DTD SVG 20010904//EN"
              "http://www.w3.org/TR/2001/REC-SVG-20010904/DTD/svg10.dtd">

<svg xmlns="http://www.w3.org/2000/svg"
     width="6.58333in" height="6.43056in"
     viewBox="0 0 474 463">
  <path id="Selection"
        fill="black" stroke="black" stroke-width="1"
        d="M 166.00,34.00
           C 166.00,34.00 206.00,30.92 206.00,30.92
             206.00,30.92 241.00,23.12 241.00,23.12
             241.00,23.12 252.00,20.31 252.00,20.31
             261.22,18.58 269.70,18.99 279.00,19.00
             285.27,19.01 290.17,19.55 296.00,22.18
             299.73,23.87 301.90,26.37 306.00,27.00
             311.36,35.66 317.38,33.36 326.00,36.02
             330.84,37.52 336.47,40.44 341.00,41.00
             341.66,45.67 343.86,46.88 343.57,51.00
             343.24,55.80 339.65,60.38 338.30,65.00
             335.43,74.85 337.95,77.55 342.00,86.00
             334.50,84.64 326.75,80.78 326.84,72.00
             326.89,66.07 332.72,59.55 324.67,53.26
             323.50,52.34 322.40,51.75 320.99,51.26
             312.26,48.22 313.34,55.81 312.68,61.00
             312.27,64.74 311.48,68.26 312.68,72.00
             316.12,83.10 337.28,90.91 343.00,103.00
             336.83,101.20 331.61,97.21 326.00,94.18
             316.03,88.80 304.06,84.77 297.34,74.99
             293.82,69.87 294.18,63.85 293.00,58.00
             290.36,45.00 285.19,35.14 271.00,32.23
             267.45,31.80 260.84,31.98 257.00,32.23
             257.00,32.23 218.00,38.57 218.00,38.57
             205.68,40.40 193.42,40.06 181.00,40.00
             175.67,39.97 168.07,39.79 166.00,34.00 Z
           M 122.00,42.00
           C 132.65,43.67 138.36,48.77 158.00,49.00
             182.52,49.28 188.50,44.94 210.00,42.29
             210.00,42.29 240.00,41.00 240.00,41.00
             251.13,41.02 268.69,44.90 275.78,54.11
             280.65,60.43 281.09,72.12 287.00,74.00
             288.67,80.11 296.52,85.88 302.00,88.63
             305.68,90.47 308.58,90.41 311.00,94.00
             300.84,95.34 286.05,95.80 276.00,94.00
             276.00,94.00 287.00,104.00 287.00,104.00
             279.70,106.05 266.10,102.66 258.00,102.00
             261.30,104.95 273.98,113.23 278.00,114.00
             278.00,114.00 277.00,117.00 277.00,117.00
             277.00,117.00 279.00,116.00 279.00,116.00
             279.00,116.00 279.00,120.00 279.00,120.00
             279.00,120.00 255.00,115.00 255.00,115.00
             258.69,129.15 259.88,138.12 253.31,152.00
             244.17,171.31 229.29,178.82 229.00,203.00
             228.83,217.59 231.02,228.12 238.33,241.00
             240.22,244.31 243.39,250.85 247.00,252.00
             247.49,255.79 249.41,257.32 252.02,260.00
             256.50,264.62 262.62,271.55 269.00,273.00
             269.00,273.00 279.00,285.00 279.00,285.00
             279.00,285.00 280.00,284.00 280.00,284.00
             276.85,279.94 270.55,269.34 266.00,268.00
             265.67,264.77 265.16,263.87 262.00,263.00
             261.26,258.81 253.73,250.13 251.09,246.00
             245.38,237.07 243.02,228.53 243.00,218.00
             243.00,218.00 243.00,212.00 243.00,212.00
             243.21,194.70 257.23,179.24 264.02,164.09
             264.02,164.09 267.00,153.00 267.00,153.00
             267.00,153.00 269.00,153.00 269.00,153.00
             271.89,164.89 268.74,172.00 265.00,183.00
             263.30,187.97 261.14,191.69 261.00,197.00
             256.66,198.76 254.87,208.63 255.04,213.00
             255.40,222.39 259.86,233.36 265.21,241.00
             267.59,244.39 269.89,247.91 274.00,249.00
             274.00,249.00 273.00,251.00 273.00,251.00
             273.00,251.00 276.00,250.00 276.00,250.00
             277.31,254.24 282.22,256.02 286.00,257.78
             292.49,260.79 301.49,265.00 307.00,269.37
             314.60,275.40 320.90,282.96 324.55,292.00
             324.55,292.00 330.00,309.00 330.00,309.00
             335.72,289.22 325.08,273.54 310.91,260.42
             302.38,252.53 293.81,247.36 286.17,238.00
             276.31,225.93 274.71,210.03 276.00,195.00
             280.16,197.39 281.86,200.82 284.00,205.00
             284.00,205.00 287.00,204.00 287.00,204.00
             288.04,208.52 289.34,209.32 293.00,212.00
             293.00,212.00 294.00,211.00 294.00,211.00
             294.00,211.00 287.32,199.00 287.32,199.00
             280.72,186.70 276.62,171.92 280.00,158.00
             280.00,158.00 282.00,158.00 282.00,158.00
             285.71,168.62 290.22,176.06 297.74,184.42
             300.81,187.83 304.44,191.92 309.00,193.00
             314.23,198.99 322.38,202.26 330.00,204.00
             328.56,191.56 315.71,190.03 311.00,178.00
             311.00,178.00 330.00,184.12 330.00,184.12
             338.39,186.12 348.16,186.78 356.00,190.02
             358.88,191.21 367.80,195.50 367.80,198.99
             367.81,200.98 358.67,208.23 356.68,211.01
             352.16,217.33 354.29,216.02 347.00,220.00
             350.71,220.31 355.03,222.05 351.26,226.32
             349.63,228.16 344.41,230.00 342.00,231.00
             346.80,231.11 353.89,228.03 357.49,233.21
             358.05,234.36 358.21,235.40 357.49,236.68
             357.49,236.68 350.00,245.00 350.00,245.00
             350.00,245.00 356.00,240.00 356.00,240.00
             358.75,239.51 361.11,238.08 364.00,238.43
             367.47,238.86 370.44,241.45 377.00,240.82
             385.31,240.03 403.22,231.52 408.15,224.83
             410.27,221.96 411.05,218.41 411.87,215.00
             412.73,211.44 414.35,205.45 412.65,202.09
             406.88,190.71 390.83,195.16 386.00,181.00
             386.00,181.00 431.00,179.00 431.00,179.00
             420.26,163.97 399.86,152.44 384.00,143.09
             379.45,140.40 366.21,133.27 364.02,128.92
             363.04,126.83 363.95,123.47 364.02,121.00
             368.47,119.43 369.25,112.08 364.02,111.00
             364.02,111.00 350.00,99.00 350.00,99.00
             350.00,99.00 347.00,100.00 347.00,100.00
             347.00,100.00 332.00,88.00 332.00,88.00
             343.84,88.26 351.69,93.03 362.00,97.88
             362.00,97.88 370.00,101.48 370.00,101.48
             373.51,103.32 380.23,106.52 381.96,110.04
             385.13,116.51 375.03,121.04 378.69,126.79
             380.73,129.99 391.21,134.69 395.00,137.21
             404.74,143.68 415.76,152.70 424.00,161.00
             427.30,164.33 435.23,174.84 439.19,176.00
             439.05,178.98 440.26,183.50 439.19,185.91
             438.04,189.60 434.13,190.53 432.39,196.00
             429.27,205.81 432.72,219.14 427.57,230.00
             424.88,235.68 423.61,238.93 417.00,240.00
             417.00,240.00 419.94,250.00 419.94,250.00
             419.94,250.00 419.94,273.00 419.94,273.00
             416.98,276.42 415.83,279.56 415.00,284.00
             415.00,284.00 402.00,295.00 402.00,295.00
             399.99,291.53 398.14,287.88 394.96,285.31
             392.03,282.94 382.72,280.60 379.00,281.35
             376.71,281.81 375.80,282.73 374.00,284.00
             378.54,289.26 380.33,299.15 380.82,306.00
             382.27,326.40 359.27,349.63 341.00,355.00
             341.00,355.00 342.00,357.00 342.00,357.00
             331.34,359.39 320.04,367.56 310.72,373.21
             307.01,375.46 300.95,377.31 300.00,382.00
             290.13,384.05 282.33,397.80 275.00,404.00
             275.00,386.24 276.28,379.81 285.29,364.00
             295.02,346.93 308.54,338.99 303.79,317.00
             302.79,312.40 302.25,311.12 300.00,307.00
             299.39,317.43 298.22,327.33 293.96,337.00
             287.74,351.10 279.54,359.37 270.09,371.00
             270.09,371.00 251.26,397.00 251.26,397.00
             251.26,397.00 238.59,419.00 238.59,419.00
             235.95,423.80 235.66,426.91 231.00,430.00
             231.00,430.00 227.00,425.00 227.00,425.00
             227.00,425.00 224.09,406.00 224.09,406.00
             223.48,397.09 226.47,381.44 229.54,373.00
             232.17,365.78 238.68,354.93 242.56,348.00
             251.47,332.08 262.31,308.32 256.25,290.00
             248.45,266.43 219.47,254.77 201.00,241.24
             191.70,234.43 180.71,222.92 174.17,213.42
             174.17,213.42 166.00,200.00 166.00,200.00
             166.21,209.28 170.86,219.18 175.68,227.00
             177.41,229.79 178.79,233.93 182.00,235.00
             182.95,240.35 193.09,250.34 196.90,255.18
             207.31,268.45 214.97,281.70 215.00,299.00
             215.01,306.52 215.35,310.54 213.25,318.00
             209.84,330.17 201.14,347.07 209.00,359.00
             209.19,350.48 212.17,340.60 215.97,333.00
             219.56,325.80 226.22,315.56 227.88,308.00
             231.52,291.40 223.23,281.66 222.00,267.00
             222.00,267.00 233.00,273.00 233.00,273.00
             233.99,277.68 237.92,281.04 240.45,285.00
             244.06,290.63 245.92,296.33 246.00,303.00
             246.00,303.00 246.00,309.00 246.00,309.00
             245.83,322.62 233.34,342.98 227.91,356.00
             218.22,379.22 218.95,380.90 217.00,405.00
             217.00,405.00 214.00,405.00 214.00,405.00
             214.00,405.00 212.00,404.00 212.00,404.00
             211.51,399.38 202.75,391.27 199.95,385.91
             198.46,383.08 198.16,380.08 195.00,379.00
             195.09,372.88 192.33,367.88 190.90,362.00
             189.16,354.90 187.92,342.35 188.00,335.00
             188.23,315.32 194.25,303.96 187.48,283.00
             185.12,275.70 182.49,269.91 179.31,263.00
             177.83,259.79 177.60,257.10 174.00,256.00
             173.75,250.04 171.05,247.06 168.31,242.00
             168.31,242.00 156.09,217.00 156.09,217.00
             148.21,195.03 155.44,167.27 165.00,147.00
             159.23,151.17 154.77,156.91 151.14,163.00
             140.72,180.49 138.98,197.36 143.89,217.00
             143.89,217.00 155.00,248.00 155.00,248.00
             155.00,248.00 146.00,242.00 146.00,242.00
             146.00,242.00 137.00,228.00 137.00,228.00
             136.63,220.96 130.15,213.77 130.00,201.00
             129.77,180.70 130.49,181.78 137.00,163.00
             126.93,174.95 127.90,181.23 123.00,188.00
             121.92,184.48 121.05,180.71 121.32,177.00
             121.82,170.39 121.86,163.37 123.77,157.00
             128.42,141.50 139.73,129.11 153.00,120.35
             153.00,120.35 182.00,105.00 182.00,105.00
             172.49,105.21 163.12,106.98 154.00,109.58
             149.08,110.98 145.81,111.37 142.00,115.00
             137.80,115.27 134.44,117.90 131.00,120.17
             120.42,127.15 117.09,130.17 108.92,140.00
             106.17,143.31 102.70,146.65 102.00,151.00
             98.51,152.28 94.21,160.64 92.13,164.00
             92.13,164.00 77.63,186.00 77.63,186.00
             74.50,190.19 72.73,193.56 68.00,196.00
             68.00,196.00 69.00,199.00 69.00,199.00
             65.06,199.94 60.57,204.58 57.00,206.90
             50.70,211.00 48.96,210.88 42.00,212.00
             45.61,205.40 49.76,203.95 54.84,197.00
             59.23,190.99 64.48,179.13 67.19,172.00
             80.20,137.70 78.57,92.05 117.00,74.37
             123.13,71.55 126.27,70.27 133.00,69.08
             145.38,66.91 149.49,66.45 162.00,67.00
             159.22,71.29 153.44,72.49 149.00,74.63
             140.54,78.69 126.10,86.51 122.00,95.00
             118.28,96.15 117.53,98.65 116.00,102.00
             120.90,99.60 122.63,97.96 127.00,95.23
             133.73,91.02 146.44,84.87 154.00,82.57
             154.00,82.57 186.00,76.51 186.00,76.51
             197.09,73.52 208.36,66.42 217.00,59.00
             217.00,59.00 184.00,62.00 184.00,62.00
             171.67,62.02 159.15,62.37 147.00,60.00
             135.81,57.81 125.04,54.44 122.00,42.00 Z
           M 120.00,43.00
           C 120.00,43.00 121.00,43.00 121.00,43.00
             121.00,43.00 120.00,44.00 120.00,44.00
             120.00,44.00 120.00,43.00 120.00,43.00 Z
           M 274.00,81.00
           C 272.38,75.93 270.09,73.05 266.72,69.00
             263.00,64.53 258.42,58.49 253.00,56.23
             239.56,50.60 223.59,63.84 215.53,73.28
             210.74,78.90 201.84,92.32 203.41,100.00
             204.83,107.01 217.10,116.42 223.00,120.21
             229.16,124.17 234.57,127.33 242.00,128.00
             242.00,128.00 235.31,115.00 235.31,115.00
             230.82,105.04 229.41,95.25 234.09,85.04
             235.94,81.01 239.30,76.53 244.00,76.02
             244.00,76.02 248.00,76.02 248.00,76.02
             249.24,81.06 257.42,84.26 262.00,86.00
             260.01,80.04 257.55,78.94 258.00,72.00
             258.00,72.00 274.00,81.00 274.00,81.00 Z
           M 343.00,86.00
           C 343.00,86.00 344.00,86.00 344.00,86.00
             344.00,86.00 343.00,87.00 343.00,87.00
             343.00,87.00 343.00,86.00 343.00,86.00 Z
           M 116.00,102.00
           C 116.00,102.00 115.00,102.00 115.00,102.00
             115.00,102.00 116.00,103.00 116.00,103.00
             116.00,103.00 116.00,102.00 116.00,102.00 Z
           M 317.00,108.00
           C 326.45,109.48 343.92,119.20 349.90,126.61
             352.13,129.38 353.04,131.64 354.00,135.00
             354.00,135.00 340.00,128.00 340.00,128.00
             339.46,131.56 339.02,134.73 343.00,136.00
             343.00,136.00 342.00,142.00 342.00,142.00
             342.00,142.00 321.00,142.90 321.00,142.90
             321.00,142.90 309.00,138.21 309.00,138.21
             309.00,138.21 299.00,138.21 299.00,138.21
             300.68,134.53 301.73,133.28 305.00,131.11
             313.37,125.56 319.96,129.80 329.00,130.00
             328.62,118.84 321.21,116.91 317.00,108.00 Z
           M 348.00,143.00
           C 359.65,144.90 381.65,157.89 386.00,169.00
             382.23,167.92 380.18,167.40 378.00,164.00
             378.00,164.00 362.00,158.00 362.00,158.00
             362.00,158.00 362.00,156.00 362.00,156.00
             354.68,155.39 348.61,150.54 348.00,143.00 Z
           M 166.00,146.00
           C 166.00,146.00 165.00,146.00 165.00,146.00
             165.00,146.00 166.00,147.00 166.00,147.00
             166.00,147.00 166.00,146.00 166.00,146.00 Z
           M 138.00,162.00
           C 138.00,162.00 137.00,162.00 137.00,162.00
             137.00,162.00 138.00,163.00 138.00,163.00
             138.00,163.00 138.00,162.00 138.00,162.00 Z
           M 94.00,169.00
           C 94.00,169.00 96.00,169.00 96.00,169.00
             96.00,169.00 88.89,197.00 88.89,197.00
             85.21,213.19 83.64,237.82 91.00,253.00
             92.76,245.77 91.44,241.88 92.43,235.00
             94.89,217.88 96.51,212.20 102.58,196.00
             105.11,189.24 107.78,181.14 113.00,176.00
             113.00,176.00 113.78,186.00 113.78,186.00
             114.13,206.81 112.97,218.70 123.67,238.00
             132.06,253.14 142.02,258.55 152.72,270.17
             152.72,270.17 162.70,283.00 162.70,283.00
             174.23,299.22 180.95,324.30 182.96,344.00
             182.96,344.00 182.96,352.00 182.96,352.00
             182.96,352.00 184.00,364.00 184.00,364.00
             184.01,370.84 185.01,382.09 182.00,388.00
             172.20,367.19 167.24,350.68 151.00,333.00
             152.06,338.80 155.33,350.43 148.00,353.00
             148.00,353.00 142.00,344.00 142.00,344.00
             142.00,344.00 143.00,342.00 143.00,342.00
             136.80,338.44 132.82,328.80 126.00,327.00
             124.89,323.11 121.69,320.85 118.72,318.26
             118.72,318.26 101.00,304.37 101.00,304.37
             83.93,291.54 63.04,270.82 63.00,248.00
             62.97,231.68 65.00,224.02 71.43,209.00
             73.51,204.13 80.47,191.91 81.00,188.00
             81.00,188.00 94.00,169.00 94.00,169.00 Z
           M 426.00,202.00
           C 423.93,204.82 423.75,205.71 425.00,209.00
             425.00,209.00 426.00,202.00 426.00,202.00 Z
           M 295.00,211.00
           C 295.00,211.00 293.00,212.00 293.00,212.00
             293.00,212.00 297.00,215.00 297.00,215.00
             297.00,215.00 295.00,211.00 295.00,211.00 Z
           M 298.00,215.00
           C 298.00,215.00 297.00,215.00 297.00,215.00
             297.00,215.00 298.00,216.00 298.00,216.00
             298.00,216.00 298.00,215.00 298.00,215.00 Z
           M 422.00,217.00
           C 422.00,217.00 421.00,217.00 421.00,217.00
             421.00,217.00 422.00,218.00 422.00,218.00
             422.00,218.00 422.00,217.00 422.00,217.00 Z
           M 328.00,221.00
           C 328.00,221.00 323.00,222.00 323.00,222.00
             323.00,222.00 328.00,221.00 328.00,221.00 Z
           M 336.00,221.00
           C 336.00,221.00 330.00,222.00 330.00,222.00
             330.00,222.00 336.00,221.00 336.00,221.00 Z
           M 341.00,231.00
           C 341.00,231.00 340.00,231.00 340.00,231.00
             340.00,231.00 341.00,232.00 341.00,232.00
             341.00,232.00 341.00,231.00 341.00,231.00 Z
           M 329.00,236.00
           C 329.00,236.00 328.00,236.00 328.00,236.00
             328.00,236.00 329.00,237.00 329.00,237.00
             329.00,237.00 329.00,236.00 329.00,236.00 Z
           M 324.00,238.00
           C 324.00,238.00 323.00,238.00 323.00,238.00
             323.00,238.00 324.00,239.00 324.00,239.00
             324.00,239.00 324.00,238.00 324.00,238.00 Z
           M 406.00,276.00
           C 410.62,267.10 412.85,260.01 410.54,250.00
             409.42,245.17 406.56,240.25 400.99,240.21
             394.70,240.16 390.09,246.42 384.00,249.80
             372.45,256.23 368.98,254.01 361.00,256.00
             362.24,258.25 362.92,259.71 365.11,261.28
             370.05,264.83 387.07,265.41 394.00,267.39
             400.25,269.18 401.42,272.01 406.00,276.00 Z
           M 348.00,247.00
           C 348.00,247.00 347.00,247.00 347.00,247.00
             347.00,247.00 348.00,248.00 348.00,248.00
             348.00,248.00 348.00,247.00 348.00,247.00 Z
           M 345.00,250.00
           C 345.00,250.00 344.00,250.00 344.00,250.00
             344.00,250.00 345.00,251.00 345.00,251.00
             345.00,251.00 345.00,250.00 345.00,250.00 Z
           M 344.00,251.00
           C 344.00,251.00 343.00,251.00 343.00,251.00
             343.00,251.00 344.00,252.00 344.00,252.00
             344.00,252.00 344.00,251.00 344.00,251.00 Z
           M 343.00,252.00
           C 343.00,252.00 342.00,252.00 342.00,252.00
             342.00,252.00 343.00,253.00 343.00,253.00
             343.00,253.00 343.00,252.00 343.00,252.00 Z
           M 92.00,253.00
           C 92.00,253.00 91.00,253.00 91.00,253.00
             91.00,253.00 92.00,254.00 92.00,254.00
             92.00,254.00 92.00,253.00 92.00,253.00 Z
           M 341.00,254.00
           C 341.00,254.00 340.00,254.00 340.00,254.00
             340.00,254.00 341.00,255.00 341.00,255.00
             341.00,255.00 341.00,254.00 341.00,254.00 Z
           M 339.00,257.00
           C 339.00,257.00 338.00,257.00 338.00,257.00
             338.00,257.00 339.00,258.00 339.00,258.00
             339.00,258.00 339.00,257.00 339.00,257.00 Z
           M 338.00,258.00
           C 338.00,258.00 337.00,258.00 337.00,258.00
             337.00,258.00 338.00,259.00 338.00,259.00
             338.00,259.00 338.00,258.00 338.00,258.00 Z
           M 311.00,262.00
           C 311.00,262.00 312.00,262.00 312.00,262.00
             312.00,262.00 311.00,263.00 311.00,263.00
             311.00,263.00 311.00,262.00 311.00,262.00 Z
           M 227.00,265.00
           C 227.00,265.00 228.00,265.00 228.00,265.00
             228.00,265.00 227.00,266.00 227.00,266.00
             227.00,266.00 227.00,265.00 227.00,265.00 Z
           M 281.00,285.00
           C 281.00,285.00 280.00,285.00 280.00,285.00
             280.00,285.00 281.00,286.00 281.00,286.00
             281.00,286.00 281.00,285.00 281.00,285.00 Z
           M 283.00,288.00
           C 283.00,288.00 282.00,288.00 282.00,288.00
             282.00,288.00 283.00,289.00 283.00,289.00
             283.00,289.00 283.00,288.00 283.00,288.00 Z
           M 350.99,294.00
           C 350.99,294.00 350.99,305.00 350.99,305.00
             350.99,305.00 347.93,319.00 347.93,319.00
             347.93,319.00 330.00,348.00 330.00,348.00
             342.62,342.31 356.82,326.61 356.82,312.00
             356.82,305.37 353.71,299.81 350.99,294.00 Z
           M 153.00,340.00
           C 153.00,340.00 154.00,340.00 154.00,340.00
             154.00,340.00 153.00,341.00 153.00,341.00
             153.00,341.00 153.00,340.00 153.00,340.00 Z
           M 328.00,349.00
           C 328.00,349.00 327.00,349.00 327.00,349.00
             327.00,349.00 328.00,350.00 328.00,350.00
             328.00,350.00 328.00,349.00 328.00,349.00 Z
           M 340.00,356.00
           C 340.00,356.00 339.00,356.00 339.00,356.00
             339.00,356.00 340.00,357.00 340.00,357.00
             340.00,357.00 340.00,356.00 340.00,356.00 Z
           M 311.00,372.00
           C 311.00,372.00 310.00,372.00 310.00,372.00
             310.00,372.00 311.00,373.00 311.00,373.00
             311.00,373.00 311.00,372.00 311.00,372.00 Z" />
</svg>
